<?xml version="1.0" encoding="UTF-8"?>
<svg width="22px" height="20px" viewBox="0 0 22 20" version="1.1" xmlns="http://www.w3.org/2000/svg" xmlns:xlink="http://www.w3.org/1999/xlink">
    <!-- Generator: Sketch 51.3 (57544) - http://www.bohemiancoding.com/sketch -->
    <title>bathtub</title>
    <desc>Created with Sketch.</desc>
    <defs/>
    <g id="Recursos" stroke="none" stroke-width="1" fill="none" fill-rule="evenodd">
        <g id="Propón-tu-precio-[definitivo]" transform="translate(-435.000000, -279.000000)" fill="#005442" fill-rule="nonzero">
            <g id="Group-24" transform="translate(213.000000, 274.000000)">
                <g id="Group" transform="translate(222.000000, 3.000000)">
                    <g id="bathtub" transform="translate(0.000000, 2.000000)">
                        <path d="M20.3514644,10.7141004 L19.9944351,10.7141004 L19.9944351,3.21619247 C19.9944351,1.43096234 18.5662762,0.00280334728 16.781046,0.00280334728 C15.2007113,0.00280334728 14.0641004,1.17460251 13.9369456,2.89154812 C13.1072803,3.0483682 12.4965272,3.76292887 12.4965272,4.64435146 C12.4965272,4.85857741 12.6393305,5.00138075 12.8535565,5.00138075 L15.7099163,5.00138075 C15.9241423,5.00138075 16.0669456,4.85857741 16.0669456,4.64435146 C16.0669456,3.77267782 15.4697071,3.06405858 14.6541004,2.89677824 C14.760795,1.76221757 15.4422176,0.716861925 16.781046,0.716861925 C18.1735146,0.716861925 19.2803347,1.82368201 19.2803347,3.21615063 L19.2803347,10.7140586 L8.53451883,10.7140586 C8.37301255,9.89058577 7.66096234,9.28589958 6.78384937,9.28589958 C6.42682008,8.8574477 5.92694561,8.57179916 5.35569038,8.57179916 C4.67732218,8.57179916 4.07033473,8.96456067 3.78468619,9.5358159 C3.49903766,9.39301255 3.17769874,9.28589958 2.85635983,9.28589958 C1.97924686,9.28589958 1.26719665,9.89058577 1.10569038,10.7140586 L1.07112971,10.7140586 C0.464142259,10.7140586 0,11.1782008 0,11.7851883 C0,12.3921757 0.464142259,12.856318 1.07112971,12.856318 L1.50020921,12.856318 L2.46359833,16.6766946 C2.74924686,17.7835146 3.74895397,18.5690377 4.89150628,18.5690377 L5.17715481,18.5690377 L4.71301255,19.497364 C4.60589958,19.6758996 4.67732218,19.8901255 4.8558159,19.9615063 C4.89150628,19.9971967 4.96292887,19.9971967 4.99861925,19.9971967 C5.14142259,19.9971967 5.24853556,19.9257741 5.31995816,19.8186611 L5.94476987,18.5690377 L15.8527197,18.5690377 L16.4597071,19.7829707 C16.5311297,19.9257741 16.6382427,19.9971967 16.781046,19.9971967 C16.8524686,19.9971967 16.888159,19.9971967 16.9238494,19.9257741 C17.0666527,19.8543515 17.1380753,19.6401255 17.0666527,19.4616318 L16.6194142,18.567113 C17.7248117,18.5278661 18.6807531,17.7558159 18.9589958,16.7123849 L19.9313808,12.856318 L20.3514644,12.856318 C20.9584519,12.856318 21.4225941,12.3921757 21.4225941,11.7851883 C21.4225941,11.1782427 20.9584519,10.7141004 20.3514644,10.7141004 Z M15.3171548,4.28732218 L13.2820084,4.28732218 C13.4248117,3.85887029 13.8532636,3.57322176 14.3174477,3.57322176 C14.7816318,3.57322176 15.1743515,3.85887029 15.3171548,4.28732218 Z M2.85635983,10 C3.17769874,10 3.46334728,10.1428033 3.7132636,10.3927615 C3.78468619,10.4998745 3.92748954,10.5355649 4.07029289,10.4998745 C4.21309623,10.4641841 4.28451883,10.3570711 4.32020921,10.2142259 C4.42732218,9.67866109 4.85577406,9.28589958 5.39133891,9.28589958 C5.78410042,9.28589958 6.14112971,9.46443515 6.31966527,9.82146444 C6.39108787,9.96426778 6.56958159,10.0356904 6.71242678,10 C6.74811715,10 6.78384937,10 6.81953975,10 C7.28368201,10 7.67644351,10.2856485 7.81924686,10.7141004 L1.85661088,10.7141004 C1.99945607,10.2856485 2.39217573,10 2.85635983,10 Z M18.316318,16.4982008 C18.1020921,17.283682 17.3879916,17.8549791 16.5668201,17.8549791 L4.92719665,17.8549791 C4.10598326,17.8549791 3.39192469,17.2837238 3.17769874,16.4982008 L2.24937238,12.8563598 L19.1732218,12.8563598 L18.316318,16.4982008 Z M20.3514644,12.1422594 L19.637364,12.1422594 L1.78523013,12.1422594 L1.07112971,12.1422594 C0.856903766,12.1422594 0.714100418,11.9994561 0.714100418,11.7852301 C0.714100418,11.5710042 0.856903766,11.4282008 1.07112971,11.4282008 L1.428159,11.4282008 L8.21196653,11.4282008 L20.3514644,11.4282008 C20.5656904,11.4282008 20.7084937,11.5710042 20.7084937,11.7852301 C20.7084937,11.9994561 20.5656904,12.1422594 20.3514644,12.1422594 Z" id="Shape"/>
                        <path d="M12.8535565,6.60807531 C13.0677824,6.60807531 13.2105858,6.46527197 13.2105858,6.25104603 L13.2105858,6.07251046 C13.2105858,5.85828452 13.0677824,5.71548117 12.8535565,5.71548117 C12.6393305,5.71548117 12.4965272,5.85828452 12.4965272,6.07251046 L12.4965272,6.25104603 C12.4965272,6.46527197 12.6393305,6.60807531 12.8535565,6.60807531 Z" id="Shape"/>
                        <path d="M12.8535565,8.25050209 C13.0677824,8.25050209 13.2105858,8.07196653 13.2105858,7.8934728 L13.2105858,7.5007113 C13.2105858,7.28648536 13.0677824,7.14368201 12.8535565,7.14368201 C12.6393305,7.14368201 12.4965272,7.28648536 12.4965272,7.5007113 L12.4965272,7.8934728 C12.4965272,8.1076569 12.6393305,8.25050209 12.8535565,8.25050209 Z" id="Shape"/>
                        <path d="M12.8535565,9.64297071 C13.0677824,9.64297071 13.2105858,9.50016736 13.2105858,9.28594142 L13.2105858,9.10740586 C13.2105858,8.89317992 13.0677824,8.75037657 12.8535565,8.75037657 C12.6393305,8.75037657 12.4965272,8.89317992 12.4965272,9.10740586 L12.4965272,9.28594142 C12.4965272,9.50012552 12.6393305,9.64297071 12.8535565,9.64297071 Z" id="Shape"/>
                        <path d="M14.2817155,6.60807531 C14.4959414,6.60807531 14.6387448,6.46527197 14.6387448,6.25104603 L14.6387448,6.07251046 C14.6387448,5.85828452 14.4959414,5.71548117 14.2817155,5.71548117 C14.0674895,5.71548117 13.9246862,5.85828452 13.9246862,6.07251046 L13.9246862,6.25104603 C13.9246862,6.46527197 14.0674895,6.60807531 14.2817155,6.60807531 Z" id="Shape"/>
                        <path d="M13.9246862,7.89343096 C13.9246862,8.1076569 14.0674895,8.25046025 14.2817155,8.25046025 C14.4959414,8.25046025 14.6387448,8.07192469 14.6387448,7.89343096 L14.6387448,7.50066946 C14.6387448,7.28644351 14.4959414,7.14364017 14.2817155,7.14364017 C14.0674895,7.14364017 13.9246862,7.28644351 13.9246862,7.50066946 L13.9246862,7.89343096 Z" id="Shape"/>
                        <path d="M13.9246862,9.28589958 C13.9246862,9.50012552 14.0674895,9.64292887 14.2817155,9.64292887 C14.4959414,9.64292887 14.6387448,9.50012552 14.6387448,9.28589958 L14.6387448,9.10736402 C14.6387448,8.89313808 14.4959414,8.75033473 14.2817155,8.75033473 C14.0674895,8.75033473 13.9246862,8.89313808 13.9246862,9.10736402 L13.9246862,9.28589958 Z" id="Shape"/>
                        <path d="M15.7099163,6.60807531 C15.9241423,6.60807531 16.0669456,6.46527197 16.0669456,6.25104603 L16.0669456,6.07251046 C16.0669456,5.85828452 15.9241423,5.71548117 15.7099163,5.71548117 C15.4956904,5.71548117 15.352887,5.85828452 15.352887,6.07251046 L15.352887,6.25104603 C15.3528452,6.46527197 15.4956904,6.60807531 15.7099163,6.60807531 Z" id="Shape"/>
                        <path d="M15.3528452,7.89343096 C15.3528452,8.1076569 15.4956485,8.25046025 15.7098745,8.25046025 C15.9241004,8.25046025 16.0669456,8.07196653 16.0669456,7.89343096 L16.0669456,7.50066946 C16.0669456,7.28644351 15.9241423,7.14364017 15.7099163,7.14364017 C15.4956904,7.14364017 15.352887,7.28644351 15.352887,7.50066946 L15.352887,7.89343096 L15.3528452,7.89343096 Z" id="Shape"/>
                        <path d="M15.3528452,9.28589958 C15.3528452,9.50012552 15.4956485,9.64292887 15.7098745,9.64292887 C15.9241004,9.64292887 16.0669038,9.50012552 16.0669038,9.28589958 L16.0669038,9.10736402 C16.0669038,8.89313808 15.9241004,8.75033473 15.7098745,8.75033473 C15.4956485,8.75033473 15.3528452,8.89313808 15.3528452,9.10736402 L15.3528452,9.28589958 Z" id="Shape"/>
                    </g>
                </g>
            </g>
        </g>
    </g>
</svg>