<?xml version="1.0" encoding="UTF-8"?>
<svg width="22px" height="20px" viewBox="0 0 22 20" version="1.1" xmlns="http://www.w3.org/2000/svg" xmlns:xlink="http://www.w3.org/1999/xlink">
    <!-- Generator: Sketch 51.3 (57544) - http://www.bohemiancoding.com/sketch -->
    <title>bed</title>
    <desc>Created with Sketch.</desc>
    <defs/>
    <g id="Recursos" stroke="none" stroke-width="1" fill="none" fill-rule="evenodd">
        <g id="Propón-tu-precio-[definitivo]" transform="translate(-329.000000, -279.000000)" fill="#005442" fill-rule="nonzero">
            <g id="Group-24" transform="translate(213.000000, 274.000000)">
                <g id="Group-2" transform="translate(116.000000, 3.000000)">
                    <g id="bed" transform="translate(0.000000, 2.000000)">
                        <path d="M21.9642071,13.7917854 C21.9981094,13.7017853 22.0100547,13.6027085 21.9788594,13.5026942 L20.166613,7.66176681 L20.166613,2.27271468 C20.166613,1.02000072 19.1390173,0 17.8749651,0 L4.12499194,0 C2.86089676,0 1.83334408,1.02000072 1.83334408,2.27271468 L1.83334408,7.66180942 L0.021097615,13.5026942 C-0.0100546679,13.601771 0.00184765264,13.7008904 0.0357499302,13.7917854 C0.0137499731,13.8881775 0,13.9872543 0,14.0908907 L0,17.7272427 L0,19.54544 C0,19.7963493 0.205347255,20 0.458346761,20 L2.29169084,20 C2.54464737,20 2.74999463,19.7963493 2.74999463,19.54544 L2.74999463,18.1818027 L19.2499624,18.1818027 L19.2499624,19.54544 C19.2499624,19.7963493 19.4553097,20 19.7083092,20 L21.5416532,20 C21.7946527,20 22,19.7963493 22,19.54544 L22,17.7272427 L22,14.0908907 C21.999957,13.9872543 21.9862071,13.8881775 21.9642071,13.7917854 Z M2.74999463,2.27271468 C2.74999463,1.52088176 3.36689577,0.90907735 4.12499194,0.90907735 L17.8749651,0.90907735 C18.6330613,0.90907735 19.2499624,1.52088176 19.2499624,2.27271468 L19.2499624,7.27270403 L18.0042148,7.27270403 L17.5770633,5.57817158 C17.4230636,4.96998933 16.873967,4.54542936 16.2423706,4.54542936 L13.2916264,4.54542936 C12.5335302,4.54542936 11.9166291,5.15723378 11.9166291,5.9090667 L11.9166291,7.27270403 L10.083285,7.27270403 L10.083285,5.90996158 C10.083285,5.15812866 9.46638385,4.54632425 8.70828768,4.54632425 L5.75754344,4.54632425 C5.12594702,4.54632425 4.5768934,4.9717791 4.42289371,5.57906646 L3.9957422,7.27270403 L2.74999463,7.27270403 L2.74999463,2.27271468 Z M17.0628143,8.0072358 C16.9748145,8.11815917 16.8428148,8.18178138 16.7007174,8.18178138 L13.2916264,8.18178138 C13.0395292,8.18178138 12.8332796,7.97813067 12.8332796,7.7272214 L12.8332796,5.9090667 C12.8332796,5.65815743 13.0395292,5.45450671 13.2916264,5.45450671 L16.243273,5.45450671 C16.4541202,5.45450671 16.6365222,5.59543011 16.6878698,5.79814332 L17.1462165,7.61634064 C17.1810641,7.75359926 17.1508142,7.89541754 17.0628143,8.0072358 Z M9.16757975,5.9090667 L9.16757975,7.72270435 C9.16757975,7.72453674 9.16667741,7.72543162 9.16667741,7.72726401 C9.16667741,7.7281589 9.16667741,7.7290964 9.16667741,7.7290964 C9.16577507,7.97911078 8.96042781,8.18182399 8.70927596,8.18182399 L5.30018496,8.18182399 C5.15718524,8.18182399 5.02608784,8.11820179 4.93808801,8.00727841 C4.85008818,7.89546015 4.81983824,7.75274698 4.85468583,7.61638325 L5.31303259,5.79818594 C5.36438015,5.59636761 5.54678214,5.45454933 5.75853172,5.45454933 L8.70927596,5.45454933 C8.96133015,5.45450671 9.16757975,5.65815743 9.16757975,5.9090667 Z M2.62989721,8.18178138 L4.00949217,8.18178138 C4.05808973,8.31814511 4.12133961,8.4490543 4.21389411,8.56722199 C4.4778936,8.8999495 4.87299048,9.09085873 5.29923965,9.09085873 L8.70833065,9.09085873 C9.30507948,9.09085873 9.80923084,8.70904028 9.99898047,8.18178138 L12.0009766,8.18178138 C12.1907262,8.70997778 12.6948775,9.09085873 13.2916264,9.09085873 L16.7007174,9.09085873 C17.1269665,9.09085873 17.5211181,8.8999495 17.7851176,8.56722199 C17.8777151,8.44994918 17.940965,8.31814511 17.9895196,8.18178138 L19.3700169,8.18178138 L20.7853617,12.743617 C20.7322095,12.7372676 20.6799596,12.7272534 20.6249597,12.7272534 L1.37499731,12.7272534 C1.31999742,12.7272534 1.26774752,12.7372676 1.21549763,12.743617 L2.62989721,8.18178138 Z M1.83334408,19.09088 L0.916650553,19.09088 L0.916650553,18.1818027 L1.83330111,18.1818027 L1.83330111,19.09088 L1.83334408,19.09088 Z M21.0833065,19.09088 L20.1666559,19.09088 L20.1666559,18.1818027 L21.0833065,18.1818027 L21.0833065,19.09088 Z M21.0833065,17.2727253 L0.916650553,17.2727253 L0.916650553,14.0908907 C0.916650553,13.8399814 1.12290015,13.6363307 1.37499731,13.6363307 L20.6249597,13.6363307 C20.8770569,13.6363307 21.0833065,13.8399814 21.0833065,14.0908907 L21.0833065,17.2727253 Z" id="Shape"/>
                    </g>
                </g>
            </g>
        </g>
    </g>
</svg>