<?xml version="1.0" encoding="UTF-8"?>
<svg width="33px" height="25px" viewBox="0 0 33 25" version="1.1" xmlns="http://www.w3.org/2000/svg" xmlns:xlink="http://www.w3.org/1999/xlink">
    <!-- Generator: Sketch 51.3 (57544) - http://www.bohemiancoding.com/sketch -->
    <title>garage coche</title>
    <desc>Created with Sketch.</desc>
    <defs/>
    <g id="Recursos" stroke="none" stroke-width="1" fill="none" fill-rule="evenodd">
        <g id="Iconografía" transform="translate(-272.000000, -143.000000)" fill="#005442" fill-rule="nonzero">
            <g id="garage-coche" transform="translate(272.000000, 143.000000)">
                <path d="M12.0881652,11.5397321 C11.8225446,12.3116071 11.5573661,13.0839286 11.2917455,13.8558036 C11.1516429,14.2638393 11.7916071,14.4392857 11.9308259,14.0339286 C12.1964464,13.2620536 12.461625,12.4897321 12.7272455,11.7178571 C12.8677902,11.3098214 12.2273839,11.134375 12.0881652,11.5397321 Z" id="Shape"/>
                <path d="M10.3839509,20.5535714 C11.6378036,20.6049107 12.5765357,19.6433036 12.7161964,18.4459821 C12.7281295,18.3950893 12.7356429,18.3410714 12.7325491,18.2799107 C12.7369688,18.1964286 12.7245938,18.1232143 12.7016116,18.059375 C12.5442723,16.9245536 11.6744866,16.0013393 10.4767634,16.0013393 C9.25119643,16.0013393 8.22097768,17.0428571 8.22097768,18.2799107 C8.22053571,19.484375 9.194625,20.5049107 10.3839509,20.5535714 Z M11.6276384,18.2799107 C11.5480848,19.7696429 9.32588839,19.7821429 9.32588839,18.2799107 C9.32544643,16.7763393 11.5480848,16.7897321 11.6276384,18.2799107 Z" id="Shape"/>
                <path d="M22.2887009,20.5535714 C23.5425536,20.6049107 24.4812857,19.6433036 24.6209464,18.4459821 C24.6328795,18.3950893 24.6403929,18.3410714 24.6372991,18.2799107 C24.6417187,18.1964286 24.6293437,18.1232143 24.6063616,18.059375 C24.4490223,16.9245536 23.5792366,16.0013393 22.3815134,16.0013393 C21.1559464,16.0013393 20.1257277,17.0428571 20.1257277,18.2799107 C20.1257277,19.484375 21.099375,20.5049107 22.2887009,20.5535714 Z M23.5323884,18.2799107 C23.4528348,19.7696429 21.2306384,19.7821429 21.2306384,18.2799107 C21.2306384,16.7763393 23.4532768,16.7897321 23.5323884,18.2799107 Z" id="Shape"/>
                <path d="M32.1604152,9.4125 C27.7774554,6.72589286 23.3949375,4.03928571 19.0119777,1.35267857 C18.4405179,1.00223214 17.8407723,0.535714286 17.1831295,0.366071429 C16.1091563,0.0888392857 15.2552812,0.492857143 14.3832857,1.02767857 C11.9586696,2.51383929 9.53449554,4 7.10987946,5.48616071 C4.97475,6.79508929 2.83962054,8.10401786 0.704491071,9.4125 C0.0972321429,9.78482143 0.651897321,10.75 1.26225,10.3763393 C5.52985714,7.76026786 9.79746429,5.14464286 14.0646295,2.52857143 C14.5560937,2.22723214 15.0506518,1.84598214 15.5743795,1.603125 C16.6624955,1.09821429 17.3828973,1.65982143 18.2451696,2.18839286 C20.6870223,3.68526786 23.128875,5.18214286 25.5711696,6.67901786 C27.5816652,7.91160714 29.5921607,9.14375 31.6030982,10.3763393 C32.212125,10.75 32.7681161,9.78526786 32.1604152,9.4125 Z" id="Shape"/>
                <path d="M29.4790179,23.7691964 C28.1495893,23.7691964 26.8201607,23.7691964 25.4907321,23.7691964 C25.5455357,23.7 25.5968036,23.6276786 25.6387902,23.5486607 C25.8805446,23.09375 25.8036429,22.5272321 25.8009911,22.0267857 C26.519183,21.7602679 27.0358393,21.0683036 27.0358393,20.2513393 L27.0358393,16.3089286 C27.0358393,15.4674107 26.4869196,14.7602679 25.7342545,14.5125 L23.7524866,9.25758929 C23.4117321,8.35491071 22.3956562,7.64732143 21.4388036,7.64732143 L11.4261027,7.64732143 C10.46925,7.64732143 9.45273214,8.35446429 9.11197768,9.25758929 L7.13065179,14.5125 C6.37798661,14.7602679 5.82906696,15.4669643 5.82906696,16.3089286 L5.82906696,20.2513393 C5.82906696,21.0861607 6.36870536,21.7883929 7.11120536,22.0415179 C7.10678571,22.5383929 7.03430357,23.0982143 7.27384821,23.5486607 C7.31583482,23.6276786 7.36710268,23.7 7.42190625,23.7691964 C7.25484375,23.7691964 7.08733929,23.7691964 6.92027679,23.7691964 C5.85691071,23.7691964 4.79310268,23.7691964 3.72929464,23.7691964 C3.01817411,23.7691964 3.01729018,24.8852679 3.72929464,24.8852679 C11.248875,24.8852679 18.7684554,24.8852679 26.2880357,24.8852679 C27.3514018,24.8852679 28.4152098,24.8852679 29.4790179,24.8852679 C30.1896964,24.8852679 30.1910223,23.7691964 29.4790179,23.7691964 Z M23.8620938,22.1486607 L24.7018259,22.1486607 C24.7287857,22.5741071 24.8193884,23.2370536 24.2819598,23.2370536 C23.7454152,23.2370536 23.8351339,22.5732143 23.8620938,22.1486607 Z M10.1444062,9.65491071 C10.3238437,9.17991071 10.9231473,8.76294643 11.4261027,8.76294643 L21.4388036,8.76294643 C21.9422009,8.76294643 22.5410625,9.17991071 22.720058,9.65491071 L24.5139911,14.4111607 L23.5425536,14.4111607 L22.3545536,10.9419643 C22.039433,10.0214286 21.0375,9.30044643 20.0731339,9.30044643 L12.7922143,9.30044643 C11.8278482,9.30044643 10.8254732,10.0209821 10.5094687,10.940625 L9.31616518,14.4111607 L8.35091518,14.4111607 L10.1444062,9.65491071 Z M22.3731161,14.4111607 L10.4856027,14.4111607 L11.5529464,11.3066964 C11.7160313,10.8325893 12.2950045,10.4165179 12.7922143,10.4165179 L20.0731339,10.4165179 C20.5699018,10.4165179 21.1479911,10.8325893 21.310192,11.3066964 L22.3731161,14.4111607 Z M6.93397768,16.3084821 C6.93397768,15.8776786 7.28091964,15.5272321 7.70741518,15.5272321 L25.1574911,15.5272321 C25.5839866,15.5272321 25.9309286,15.8776786 25.9309286,16.3084821 L25.9309286,20.2508929 C25.9309286,20.6816964 25.5839866,21.0321429 25.1574911,21.0321429 L7.70741518,21.0321429 C7.28091964,21.0321429 6.93397768,20.6816964 6.93397768,20.2508929 L6.93397768,16.3084821 Z M8.63067857,23.2370536 C8.09413393,23.2370536 8.18385268,22.5736607 8.2108125,22.1486607 L9.05054464,22.1486607 C9.07794643,22.5741071 9.16810714,23.2370536 8.63067857,23.2370536 Z M9.98750893,23.5486607 C10.209817,23.1299107 10.1629687,22.6174107 10.1519196,22.1486607 L22.7611607,22.1486607 C22.7501116,22.6178571 22.7028214,23.1303571 22.9255714,23.5486607 C22.967558,23.6276786 23.0188259,23.7 23.0736295,23.7691964 C18.6623839,23.7691964 14.2511384,23.7691964 9.83989286,23.7691964 C9.89425446,23.7 9.94552232,23.6276786 9.98750893,23.5486607 Z" id="Shape"/>
            </g>
        </g>
    </g>
</svg>