<?xml version="1.0" encoding="UTF-8"?>
<svg width="20px" height="20px" viewBox="0 0 20 20" version="1.1" xmlns="http://www.w3.org/2000/svg" xmlns:xlink="http://www.w3.org/1999/xlink">
    <!-- Generator: Sketch 51.3 (57544) - http://www.bohemiancoding.com/sketch -->
    <title>plans</title>
    <desc>Created with Sketch.</desc>
    <defs></defs>
    <g id="Recursos" stroke="none" stroke-width="1" fill="none" fill-rule="evenodd">
        <g id="Propón-tu-precio-[definitivo]" transform="translate(-213.000000, -279.000000)" fill="#005442" fill-rule="nonzero">
            <g id="Group-24" transform="translate(213.000000, 274.000000)">
                <g id="Group-3" transform="translate(0.000000, 3.000000)">
                    <g id="plans" transform="translate(0.000000, 2.000000)">
                        <path d="M19.659375,1.75378906 C19.8475391,1.75378906 20.0000391,1.60125 20.0000391,1.413125 L20.0000391,0.340664063 C20.0000391,0.152539062 19.8475781,0 19.659375,0 L4.24347656,0 C4.05535156,0 3.9028125,0.152539062 3.9028125,0.340664063 L3.9028125,15.7564844 C3.9028125,15.9446094 4.05535156,16.0971484 4.24347656,16.0971484 L19.6592969,16.0971484 C19.8474609,16.0971484 19.9999609,15.9446094 19.9999609,15.7564844 L19.9999609,2.54863281 C19.9999609,2.36050781 19.8475,2.20796875 19.6592969,2.20796875 C19.4711328,2.20796875 19.3186328,2.36050781 19.3186328,2.54863281 L19.3186328,8.38519531 L17.9657422,8.38519531 C17.7775781,8.38519531 17.6250781,8.53773437 17.6250781,8.72585938 C17.6250781,8.91398438 17.7775391,9.06652344 17.9657422,9.06652344 L19.3186328,9.06652344 L19.3186328,15.4158594 L9.58566406,15.4158594 L9.58566406,13.7675391 C9.58566406,13.5794141 9.433125,13.426875 9.245,13.426875 C9.056875,13.426875 8.90433594,13.5794141 8.90433594,13.7675391 L8.90433594,15.4158594 L4.58414062,15.4158594 L4.58414062,0.681328125 L8.904375,0.681328125 L8.904375,11.3148438 C8.904375,11.5029687 9.05691406,11.6555078 9.24503906,11.6555078 C9.43316406,11.6555078 9.58570313,11.5029688 9.58570313,11.3148438 L9.58570313,9.06652344 L15.6493359,9.06652344 C15.8375,9.06652344 15.99,8.91398438 15.99,8.72585938 C15.99,8.53773437 15.8375391,8.38519531 15.6493359,8.38519531 L9.58566406,8.38519531 L9.58566406,0.681328125 L19.3187109,0.681328125 L19.3187109,1.413125 C19.3187109,1.60125 19.4711719,1.75378906 19.659375,1.75378906 Z" id="Shape"></path>
                        <path d="M2.87808594,1.96605469 L1.75398438,0.160625 C1.69179688,0.0607421875 1.58242188,0 1.46480469,0 C1.34714844,0 1.2378125,0.0607421875 1.175625,0.160625 L0.051484375,1.96605469 C-0.01390625,2.07109375 -0.0172265625,2.20332031 0.0428515625,2.31148438 C0.102929688,2.41964844 0.216953125,2.48675781 0.340664063,2.48675781 L1.12414063,2.48675781 L1.12414063,3.91128906 C1.12414063,4.09941406 1.27667969,4.25195313 1.46480469,4.25195313 C1.65292969,4.25195313 1.80546875,4.09941406 1.80546875,3.91128906 L1.80546875,2.48675781 L2.58894531,2.48675781 C2.71265625,2.48675781 2.82667969,2.4196875 2.88675781,2.31148438 C2.94683594,2.20328125 2.94351563,2.07105469 2.87808594,1.96605469 Z M0.9540625,1.80542969 L1.46476563,0.985195312 L1.97546875,1.80542969 L0.9540625,1.80542969 Z" id="Shape"></path>
                        <path d="M2.88671875,13.7857031 C2.82664063,13.6775391 2.71261719,13.6104687 2.58890625,13.6104687 L1.80542969,13.6104687 L1.80542969,4.8196875 C1.80542969,4.6315625 1.65289062,4.47902344 1.46476562,4.47902344 C1.27664062,4.47902344 1.12410156,4.6315625 1.12410156,4.8196875 L1.12410156,13.6104297 L0.340664063,13.6104297 C0.216953125,13.6104297 0.102929688,13.6775 0.0428515625,13.7857031 C-0.0172265625,13.8939062 -0.01390625,14.0261328 0.051484375,14.1311328 L1.17558594,15.9365625 C1.23777344,16.0364453 1.34710938,16.0971875 1.46476562,16.0971875 C1.58246094,16.0971875 1.69179687,16.0364453 1.75394531,15.9365625 L2.87804687,14.1311328 C2.94351562,14.0260547 2.94683594,13.8938672 2.88671875,13.7857031 Z M1.46480469,15.1120312 L0.9540625,14.2917969 L1.97546875,14.2917969 L1.46480469,15.1120312 Z" id="Shape"></path>
                        <path d="M19.8394141,18.2460547 L18.0339844,17.1219531 C17.9289453,17.0565625 17.7967188,17.0532812 17.6885547,17.1133203 C17.5803906,17.1733984 17.5133203,17.2874219 17.5133203,17.4111328 L17.5133203,18.1946094 L6.38957031,18.1946094 L6.38957031,17.4111328 C6.38957031,17.2874219 6.3225,17.1733984 6.21433594,17.1133203 C6.10617188,17.0532812 5.97398438,17.0565625 5.86886719,17.1219531 L4.0634375,18.2460547 C3.96355469,18.3082422 3.9028125,18.4175781 3.9028125,18.5352344 C3.9028125,18.6528906 3.96355469,18.7622266 4.0634375,18.8244141 L5.86886719,19.9485156 C5.92386719,19.9827734 5.98636719,19.9999609 6.04890625,19.9999609 C6.10582031,19.9999609 6.16277344,19.9857422 6.21429688,19.9571484 C6.3225,19.8970703 6.38957031,19.7830469 6.38957031,19.6593359 L6.38957031,18.8758594 L17.5132813,18.8758594 L17.5132813,19.6593359 C17.5132813,19.7830469 17.5804297,19.8970703 17.6885156,19.9571484 C17.7400781,19.9857812 17.7970312,19.9999609 17.8539453,19.9999609 C17.9164844,19.9999609 17.9789844,19.9827344 18.0339844,19.9485156 L19.8394141,18.8244141 C19.9392969,18.7622266 20.0000391,18.6528906 20.0000391,18.5352344 C20.0000391,18.4175391 19.9392969,18.3082422 19.8394141,18.2460547 Z M5.70824219,19.0459375 L4.88800781,18.5352344 L5.70824219,18.0245312 L5.70824219,19.0459375 Z M18.1946094,19.0459375 L18.1946094,18.0245312 L19.0149219,18.5352344 L18.1946094,19.0459375 Z" id="Shape"></path>
                    </g>
                </g>
            </g>
        </g>
    </g>
</svg>