<?xml version="1.0" encoding="UTF-8"?>
<svg width="15px" height="18px" viewBox="0 0 15 18" version="1.1" xmlns="http://www.w3.org/2000/svg" xmlns:xlink="http://www.w3.org/1999/xlink">
    <!-- Generator: Sketch 52.2 (67145) - http://www.bohemiancoding.com/sketch -->
    <title>Ver en mapa</title>
    <desc>Created with Sketch.</desc>
    <g id="Iconografía" stroke="none" stroke-width="1" fill="none" fill-rule="evenodd">
        <g transform="translate(-714.000000, -249.000000)" fill="#005442" fill-rule="nonzero" id="Ver-en-mapa">
            <g transform="translate(714.000000, 249.000000)">
                <path d="M7.29761963,3.58527607 C5.22154601,3.58527607 3.53565644,5.27484663 3.53565644,7.34723926 C3.53565644,9.4196319 5.22154601,11.1128834 7.29761963,11.1128834 C9.37369325,11.1128834 11.0595828,9.42331288 11.0595828,7.35092025 C11.0595828,5.27852761 9.37369325,3.58527607 7.29761963,3.58527607 Z M7.29761963,10.2110429 C5.71847853,10.2110429 4.43749693,8.92638037 4.43749693,7.35092025 C4.43749693,5.77546012 5.72215951,4.49079755 7.29761963,4.49079755 C8.87307975,4.49079755 10.1577423,5.77546012 10.1577423,7.35092025 C10.1577423,8.92638037 8.87676074,10.2110429 7.29761963,10.2110429 Z" id="Shape"></path>
                <path d="M7.29761963,0 C7.21295706,0 7.1246135,0 7.03995092,0.0036809816 C3.41050307,0.128834356 0.410503067,2.94846626 0.0644907975,6.5595092 C-0.00176687117,7.25889571 0.0313619632,7.96196319 0.160196319,8.63190184 C0.160196319,8.63190184 0.171239264,8.71656442 0.211730061,8.87484663 C0.322159509,9.37177914 0.487803681,9.85398773 0.697619632,10.3030675 C1.4448589,12.0736196 3.08289571,14.801227 6.63872393,17.7533742 C6.82645399,17.9079755 7.06203681,17.992638 7.3049816,17.992638 C7.54792638,17.992638 7.7835092,17.9079755 7.97123926,17.7533742 C11.5233865,14.804908 13.1614233,12.0736196 13.9049816,10.3177914 C14.1184785,9.85766871 14.2841227,9.37177914 14.3945521,8.87852761 C14.416638,8.79018405 14.431362,8.71656442 14.4424049,8.64662577 C14.5307485,8.19386503 14.5749202,7.73006135 14.5749202,7.26625767 C14.5675583,3.26134969 11.3062086,0 7.29761963,0 Z M13.5479264,8.49202454 C13.5479264,8.4993865 13.5368834,8.56196319 13.5111166,8.67607362 C13.4117301,9.11042945 13.2681718,9.53374233 13.0767607,9.95337423 C12.3663313,11.6319018 10.8055951,14.2269939 7.39332515,17.0576687 C7.36019632,17.0834356 7.32706748,17.0907975 7.30130061,17.0907975 C7.27921472,17.0907975 7.24240491,17.0834356 7.20927607,17.0576687 C3.79700613,14.2233129 2.23258896,11.6282209 1.51847853,9.93865031 C1.33074847,9.53374233 1.18719018,9.11042945 1.08780368,8.67239264 C1.06571779,8.57668712 1.05467485,8.51779141 1.05099387,8.4993865 C1.05099387,8.49202454 1.04731288,8.48466258 1.04731288,8.47730061 C0.933202454,7.87730061 0.903754601,7.25889571 0.962650307,6.64785276 C1.26817178,3.48588957 3.89271166,1.01595092 7.07307975,0.905521472 C10.6841227,0.780368098 13.6657178,3.6809816 13.6657178,7.26993865 C13.6657178,7.67484663 13.625227,8.0797546 13.5479264,8.49202454 Z" id="Shape"></path>
            </g>
        </g>
    </g>
</svg>